# xmcd
#
# Track frame offsets:
#	150
#	20412
#	40722
#	60842
#	83062
#	103170
#	124195
#	145995
#	160305
#	182687
#
# Disc length: 2705 seconds
#
# Revision: 1
# Processed by: cddbd v1.5.1PL2 Copyright (c) Steve Scherf et al.
# Submitted via: audiograbber 1.83.01
#
DISCID=7b0a8f0a
DTITLE=Toni Braxton - Breathe Again - Toni Braxton at her best
DYEAR=2005
DGENRE=R&B
TTITLE0=Un-Break My Heart
TTITLE1=Breathe Again
TTITLE2=You're Makin' Me High
TTITLE3=You Mean The World To Me
TTITLE4=Best Friend
TTITLE5=Candlelight
TTITLE6=Spanish Guitar
TTITLE7=Maybe
TTITLE8=Rock Me, Roll Me
TTITLE9=Always
EXTD=
EXTT0=
EXTT1=
EXTT2=
EXTT3=
EXTT4=
EXTT5=
EXTT6=
EXTT7=
EXTT8=
EXTT9=
PLAYORDER=
